<svg xmlns="http://www.w3.org/2000/svg" version="1.1" xmlns:xlink="http://www.w3.org/1999/xlink" xmlns:svgjs="http://svgjs.dev/svgjs" width="1440" height="560" preserveAspectRatio="none" viewBox="0 0 1440 560"><g mask="url(&quot;#SvgjsMask4042&quot;)" fill="none"><rect width="1440" height="560" x="0" y="0" fill="url(&quot;#SvgjsLinearGradient4043&quot;)"></rect><path d="M51.14 245.49L122.16 286.49L122.16 368.49L51.14 409.49L-19.88 368.49L-19.88 286.49zM193.17 -0.51L264.19 40.49L264.19 122.49L193.17 163.49L122.16 122.49L122.16 40.49zM193.17 491.49L264.19 532.49L264.19 614.49L193.17 655.49L122.16 614.49L122.16 532.49zM406.22 122.49L477.24 163.49L477.24 245.49L406.22 286.49L335.2 245.49L335.2 163.49zM406.22 368.49L477.24 409.49L477.24 491.49L406.22 532.49L335.2 491.49L335.2 409.49zM406.22 614.49L477.24 655.49L477.24 737.49L406.22 778.49L335.2 737.49L335.2 655.49zM548.25 122.49L619.27 163.49L619.27 245.49L548.25 286.49L477.24 245.49L477.24 163.49zM619.27 -0.51L690.28 40.49L690.28 122.49L619.27 163.49L548.25 122.49L548.25 40.49zM690.28 122.49L761.3 163.49L761.3 245.49L690.28 286.49L619.27 245.49L619.27 163.49zM761.3 -0.51L832.32 40.49L832.32 122.49L761.3 163.49L690.28 122.49L690.28 40.49zM903.33 -0.51L974.35 40.49L974.35 122.49L903.33 163.49L832.32 122.49L832.32 40.49zM903.33 245.49L974.35 286.49L974.35 368.49L903.33 409.49L832.32 368.49L832.32 286.49zM974.35 368.49L1045.37 409.49L1045.37 491.49L974.35 532.49L903.33 491.49L903.33 409.49zM903.33 491.49L974.35 532.49L974.35 614.49L903.33 655.49L832.32 614.49L832.32 532.49zM1045.37 -0.51L1116.38 40.49L1116.38 122.49L1045.37 163.49L974.35 122.49L974.35 40.49zM1400.45 122.49L1471.46 163.49L1471.46 245.49L1400.45 286.49L1329.43 245.49L1329.43 163.49zM1542.48 122.49L1613.49 163.49L1613.49 245.49L1542.48 286.49L1471.46 245.49L1471.46 163.49zM1471.46 245.49L1542.48 286.49L1542.48 368.49L1471.46 409.49L1400.45 368.49L1400.45 286.49z" stroke="url(&quot;#SvgjsLinearGradient4044&quot;)" stroke-width="2"></path></g><defs><mask id="SvgjsMask4042"><rect width="1440" height="560" fill="#ffffff"></rect></mask><linearGradient x1="0%" y1="50%" x2="100%" y2="50%" gradientUnits="userSpaceOnUse" id="SvgjsLinearGradient4043"><stop stop-color="rgba(14, 42, 71, 1)" offset="0"></stop><stop stop-color="rgba(0, 0, 0, 1)" offset="0"></stop></linearGradient><linearGradient x1="220.03199999999998" y1="-220.02399999999997" x2="1219.9679999999998" y2="780.024" gradientUnits="userSpaceOnUse" id="SvgjsLinearGradient4044"><stop stop-color="#0e2a47" offset="0"></stop><stop stop-color="rgba(74, 22, 86, 1)" offset="1"></stop></linearGradient></defs></svg>